<?xml version="1.0" encoding="UTF-8"?><svg id="Layer_1" xmlns="http://www.w3.org/2000/svg" viewBox="0 0 480.65 463.01"><defs><style>.cls-1{fill:#1faaf3;}.cls-2{fill:#f66630;}.cls-3{fill:#f6b90c;}.cls-4{fill:#36c63d;}.cls-5{fill:#3459d0;}.cls-6{fill:#afa91c;}</style></defs><path class="cls-4" d="M87.14,391.56c-3.39,2.05-9.14,4.46-13,4.81-10.36.94-47.45-21.2-58.52-27.58-6.29-3.63-10.81-1.06-13.78-10.46-3.82-12.09-.53-18.8-.49-29.3.26-68.42-.68-136.86.32-205.27,1.2-3.96,3.77-7.34,7.23-9.59,6.01-3.9,36.72-19.61,42.68-20.83,8.77-1.8,26.74,4.22,32.85,10.32,7.11,7.1,5.68,26.86,7.6,28.31l123.87,66.22c15.24,4.11,21.02-10.73,38.73-5.14,3.04.96,23.55,12.41,24.86,14.34,5.78,8.5,1.02,23.87,6.87,29.15,21.2,9.94,41.85,21.05,62.61,31.77,15.82,8.17,33.89,17.67,51.6,25.3,10.59,4.56,4.24,7.61,20.7,4.51-14.49,10.25,6.3,16.08,14.93,20.56-.6,5.38,1.35,11.61-.96,16.8s-16.28,11.31-21.82,10.87c-8.6-.68-13.09-6.21-23.89-7.1-.62-.05-1.29.12-1.87,0-.25-.88-.98-1.69-1.87-1.87-1.14-.23-2.6.24-3.73,0-11.79-2.47-25.2-13.26-36.08-19.01-12.35-6.52-91.46-48.89-97.22-48.28-6.33.68-8.7,5.05-18.71,3.62-2.47-.35-19.12-7.03-21.47-8.41-9.55-5.64-3.17-19.14-6.93-23.42-19.34-9.08-37.19-21.39-56.05-31.27-14.4-7.54-29.49-12.91-43.57-19.92-14.2-7.06-28.04-22.78-44.77-17.79,2.16-2.71,7.31-7.65,5.37-11l-18.43-7.69-.04,21.34,9.37,1.08c-9.29,12.15-3.74,17.09-3.64,30.76.32,41.14-.44,82.3-.1,123.44.81,4.4,19.73,14.58,24.27,14.01-4.08,6.64,1.41,9.14,2.61,13.03.64,2.09-1.02,4.71-.5,6.3,1.16,3.56,16.62,5.41,10.95,19.93l6.53-.02-2.78,5.62c-.48.23-1.29-.21-1.87,0-.78.28-1.42,1.15-1.87,1.87Z"/><path class="cls-5" d="M393.28,133.64c1.05.28,2.87-.51,4.35-.04,2.22.7.05,4.55,3.09,3.77l1.88-20.54c-6.3,3.17-21.52,5.21-14.92,14.94-11.49-.41-30.93,13.81-42.02,18.67-3.03,11.85,2.41,62.98-5.4,69.36s-11.42-2.94-14.66-4.44c-11.31-5.26-25.72-5.35-27.56-20.93-1.47-12.46-1.23-59.73,2.81-70.16,3.05-7.89,10.51-11.66,18.17-13.58l20.12-11.58-76.52-42.08c.72-.35,6.79-13.11,7.09-14.4,2.15-9.3-1.83-20.91,2.25-30.46,18.97,10.16,38.63,19.17,57.58,29.25,28.65,15.24,38.48,26.85,72.04,32.53,5.87.99,35.4,17.69,39.39,22.24s4.15,6.42,4.68,12.14c2,21.83,2.39,72.18-.05,93.57-.82,7.15-3.25,12.5-11.3,9.43-7.66-7.37-27.34-11.57-32.45-19.89-8.82-14.35,3.98-43.26-8.54-57.79Z"/><path class="cls-1" d="M271.94,12.16c-4.07,9.55-.09,21.16-2.25,30.46-.3,1.28-6.37,14.05-7.09,14.4-6.73,3.26-17.71,4.93-25.11,3.64-2.9-.5-5.04-3.29-7.72-3.68-4.39-.64-56.02,24.08-56.76,27.16-.7,2.9,2.49,3.85,4.29,5.02,7.58,4.93,38.23,20.8,46.07,23.15,6.25,1.88,17.52-2.79,26.71-.71,1.9.43,14.46,8.14,15.69,9.5,10.41,11.52,8.38,36.16-5.13,45.14-6.58,4.38-21.32,6.77-28.59,4.45-1.51-.48-3.92-5.1-7.59-7.21-4.67-2.68-10.08-3.38-14.84-5.78-33.68-17-65.98-36.82-100.08-53.05-7.64-5.84-6.57-25.08-3.62-33.51,2.11-6.05,6.45-7.49,11.7-10.72C153.54,38.33,197.41,22.68,234.24,1.51c11.68-4.26,23.12,1.32,33.49,6.54,2.44,1.23,3.65,3.8,4.22,4.1Z"/><path class="cls-2" d="M243.94,298.11c.62.05,1.26-.08,1.87,0,2.29,4.86,8.07,5.13,11.93,7.75,1.47,1,7.84,5.25,8.2,5.64,1.17,1.29-.3,5.53,2.19,8.17,1.88,1.98,8.6,2.93,11.88,4.93,5.72,3.49,11.13,10.04,15.68,12.34,3.84,1.93,15.58,3.22,16.92,4.56.73.73,5.5,18.04,5.67,19.72,1.19,11.32-.6,24.63-1.48,35.1-.4,4.7,3.06,19.13.16,22.49-8.96,4.67-23.49,6.35-20.92,19.31-9.95,1.68-19.57,6.96-28.43,11.75-4.13,2.23-5.84,5.54-7.44,6.55-2.49,1.58-7.73.3-10.63,6.16-9.66,1.23-14.12-.23-22.4-3.74l7.46-1.85c-7.56-.41-11.19-7.28-18.22-10.73-14.61-7.17-30.55-3.38-32.24-23.79-2.51-30.37,1.94-64.21.15-94.96,4.84-8.03,9.82-8.59,17.26-12.58,1.08-.58,1.18-2.81,2.76-3.61,4.43-2.25,17.15-2.38,17.24-9.46.55-.19,1.29.17,1.87,0,4.48-1.32,5.27-3.65,5.6-3.74.55-.14,1.24.1,1.87,0,3.15-.52,9.65-.29,13.07,0ZM255.14,356.05c.76-6.47-2.02-2.64-5.21-2.43-7.54.48-15.01.54-22.52.82-5.88,15.88,1.19,32.63-.34,48.96l23.57,6.86,8.24-3.74c2.27-.73,5.7-3.56,7.47-3.74.13-.01.74,2.17,1.83,1.89.29-1.14-.33-3.14.04-3.76.1-.16,1.23.07,1.87,0,2.44-.29,5.03.25,7.48,0v-3.73c.52-.23,1.35.24,1.86,0,2.59-1.21,3.49-3.62,3.73-3.74.51-.24,1.36.25,1.87,0,1.06-.52,1.53-1.69,1.87-1.87.49-.26,1.4.27,1.87,0,2.87-1.65,3.73-2.53,5.6-3.74.44-.29,1.48.3,1.87,0,1.91-1.49,4.21-2.49,5.59-4.7.7-2.59-.97-2.17-1.86-2.78-.42-.28-1.38.27-1.87,0-.38-.21-.83-1.39-1.87-1.87-.52-.24-1.37.24-1.87,0-1.02-4.83-1.72-3.9-4.82-5.61-5.8-3.2-8.84-4.74-15.71-7.47-.54-.22-1.35.23-1.87,0-1.08-6.23-9.12-8.61-14.93-9.34-.61-.08-1.25.03-1.87,0Z"/><path class="cls-3" d="M398.88,256.99c-2.53-7.97-17.19-9.2-22.37-12.21-2.39-1.39-8.13-9.47-13.1-11.15v-42.05c2.06-.14,4.06-.14,6.09.44,9.91,2.86,25.9,13.77,35.6,18.57,13.8,6.82,24.95,12.86,38.24,20.04,5.27,2.85,25.12,9.49,27.88,11.86,1.27,1.09,3.77,9.61,4.04,11.86,1.79,14.7,2.1,56.41.31,70.93-.52,4.2-4.52,2.95-5.48,5.75-1.98,5.76,1.44,21.24-3.05,26.91-1.91,2.42-5.99,1.47-8.41,2.83-2.8,1.57-2.79,5.2-5.18,6.47-3.65,1.94-12.68,5.49-17.79,7.86-17.2,7.98-30.46-5.71-45.82-11.88-.66-6.7-.3-13.54-.3-20.26,10.81,1.73,14.85,8.66,27.06,7.56,6.51-.59,22.06-9.32,23.29-16.02,1.05-5.69,1.57-19.29,1.98-26.13.21-3.49,1.55-7.65-3.81-6.54-.13-4.19-1.72-6.11-1.87-7.48-.63-5.79-.08-19.44-4.2-23.85s-24.47-10.65-31.27-13.53c-.53-.22-1.34.22-1.87,0Z"/><path class="cls-2" d="M245.81,298.11c13.1,1.63,12.32,7.02,21.51,13.04,24.8,16.26,53.45,28.67,79.44,43.81,4.93,2.87,21.75,9.67,22.39,15.04-1.85,11.74,4.73,26.99-6.69,34.62-29.3,14.27-57.35,31.59-86.43,46.16-6.86,3.43-19.57,10.91-26.49,11.79,2.9-5.86,8.15-4.58,10.63-6.16,1.59-1.01,3.31-4.31,7.44-6.55,8.86-4.79,18.48-10.07,28.43-11.75-2.57-12.96,11.96-14.64,20.92-19.31,2.89-3.35-.56-17.78-.16-22.49.88-10.47,2.66-23.78,1.48-35.1-.18-1.68-4.95-19-5.67-19.72-1.33-1.33-13.08-2.62-16.92-4.56-4.55-2.29-9.96-8.85-15.68-12.34-3.29-2.01-10.01-2.95-11.88-4.93-2.5-2.64-1.03-6.88-2.19-8.17-.36-.39-6.73-4.64-8.2-5.64-3.86-2.62-9.64-2.89-11.93-7.75Z"/><path class="cls-2" d="M83.41,341.09c5.38-7.78,17.42-8.95,24.93-14.77l.38-32.06c-8.55-2.76-23.36-6.85-26.34-16.61-1.98-6.49-1.77-25.44,2.79-30.58,4.56-5.13,29.01-13,36.44-12.59,4.31.24,32.71,13.55,34.68,16.38,2.19,3.15,3.4,10.45,3.74,14.46,2.23,26.65-1.48,56.77-.48,83.78-2.52,3.08-5.11,8.25-8.22,10.45-11.13,7.88-34.24,16.34-47.37,22.65.17-1.19-.25-2.67,0-3.74,2.57-10.98,13.99-9.23,21.03-11.23,1.3-.37,3.42-4.86,6.67-6.83,6.42-3.89,15.27-5.02,18.95-7.2,10.34-6.12,4.47-53.53,3.78-65.41-.42-7.2.8-35.96-3.99-39.93-.83-.69-7.36-.25-10.58-1.51-1.81-.71-2.09-3.38-2.85-3.69-9.23-3.71-18.29-5.79-28.43-4.52-3.3.42-2.58,3.01-4.18,3.7-2.65,1.14-13.77,5.15-14.82,6.27-2.78,2.97-3.32,25.66-2.01,29.99,2.68,8.88,18.55,5.58,24.48,7.27,9.53,2.71,3.16,32.87,5.14,41.47-.62,2.27-9.04,2.02-11.68,3.21-5.46,2.46-12.58,8.45-20.17,11.02-.56.19-1.3-.18-1.87,0Z"/><path class="cls-3" d="M398.88,256.99c-7.04-2.92-35.37-15.73-37.82-21-1.04-8.78-5.79-46.56,5.22-48.25,4.77-.73,27.34,13.51,33.79,16.67,6.85,3.35,14.24,5.47,21,8.88,18.06,9.12,35.54,20.43,53.8,29.29,2.72,4.74,3.9,9.84,4.35,15.28,1.72,20.42,2.27,67.85-.57,87.43-.76,5.28-2.51,12.2-7.1,15.32-24.27,9.5-35.99,28.11-64.64,16.36-20.32-8.34-23-18.64-24.85-39.6,1.13.24,2.59-.23,3.73,0,.27.87.98,1.69,1.87,1.87.58.12,1.25-.05,1.87,0v3.74c0,6.73-.36,13.56.3,20.26,15.36,6.17,28.62,19.86,45.82,11.88,5.12-2.37,14.15-5.92,17.79-7.86,2.4-1.27,2.38-4.9,5.18-6.47,2.42-1.36,6.49-.41,8.41-2.83,4.48-5.67,1.07-21.16,3.05-26.91.96-2.8,4.96-1.56,5.48-5.75,1.79-14.52,1.48-56.23-.31-70.93-.27-2.25-2.77-10.77-4.04-11.86-2.76-2.37-22.61-9.01-27.88-11.86-13.29-7.18-24.44-13.22-38.24-20.04-9.7-4.8-25.68-15.71-35.6-18.57-2.03-.59-4.02-.58-6.09-.44v42.05c4.97,1.68,10.71,9.76,13.1,11.15,5.18,3.01,19.84,4.24,22.37,12.21Z"/><path class="cls-4" d="M436.21,294.37c.15,1.36,1.74,3.29,1.87,7.48.22,7.12-1.2,10.87-1.87,16.82-8.63-4.48-29.42-10.31-14.93-20.56.6-.11,1.28.13,1.87,0,3.25-.74,6.67-2.98,9.33-3.74,1-.28,2.56.19,3.73,0Z"/><path class="cls-4" d="M53.54,176.63l-9.37-1.08.04-21.34,18.43,7.69c1.94,3.35-3.21,8.28-5.37,11-1.36,1.72-3.13,2.94-3.73,3.74Z"/><path class="cls-2" d="M221.54,301.85c-.09,7.08-12.81,7.21-17.24,9.46-1.58.8-1.68,3.03-2.76,3.61-7.44,3.99-12.41,4.55-17.26,12.58,1.79,30.75-2.66,64.59-.15,94.96,1.69,20.41,17.63,16.62,32.24,23.79,7.03,3.45,10.66,10.32,18.22,10.73l-7.46,1.85c-8.27-3.5-41.05-19.59-43.83-26.2l-.13-106.59c3.08-10.08,28.64-20.92,38.36-24.2Z"/><path class="cls-5" d="M387.68,131.77c-6.59-9.73,8.62-11.77,14.92-14.94l-1.88,20.54c-3.04.78-.87-3.07-3.09-3.77-1.48-.47-3.31.32-4.35.04-1.58-.42-4.99-1.85-5.6-1.87Z"/><path class="cls-4" d="M83.41,341.09c.57-.18,1.31.19,1.87,0l-7.47,8.48c.68,12.93,14.34,19.35,14.95,30.79l11.19-1.88c-.25,1.07.17,2.54,0,3.74-4.45,2.14-8.55,5.33-13.07,7.48l2.78-5.62-6.53.02c5.68-14.52-9.78-16.37-10.95-19.93-.52-1.59,1.15-4.2.5-6.3-1.19-3.89-6.69-6.39-2.61-13.03,1.2-.15,6.66-2.88,9.33-3.74Z"/><path class="cls-3" d="M400.74,256.99c6.8,2.88,27,8.97,31.27,13.53s3.56,18.05,4.2,23.85c-1.18.19-2.74-.28-3.73,0v-1.87c-.85-4.25,1.39-15.71-.3-18.4s-21.16-9.12-25.29-11.12c-2.75-1.34-4.9-3.15-6.14-5.99Z"/><path class="cls-2" d="M243.94,298.11c-3.42-.29-9.92-.52-13.07,0,3.25-4.78,9.81-4.78,13.07,0Z"/><path class="cls-4" d="M432.48,292.5v1.87c-2.66.76-6.08,3-9.33,3.74,1.61-3.74,5.56-5.12,9.33-5.61Z"/><path class="cls-3" d="M223.41,301.85l5.6-3.74c-.33.09-1.12,2.42-5.6,3.74Z"/><path class="cls-3" d="M438.08,301.85c5.36-1.11,4.02,3.05,3.81,6.54-.41,6.84-.94,20.43-1.98,26.13-1.23,6.7-16.78,15.43-23.29,16.02-12.21,1.1-16.26-5.83-27.06-7.56v-3.74c10.8.89,15.29,6.42,23.89,7.1,5.53.44,19.5-5.66,21.82-10.87s.36-11.41.96-16.8c.67-5.95,2.08-9.7,1.87-16.82Z"/><path class="cls-6" d="M387.68,339.23c-.88-.18-1.59-1-1.87-1.87.89.18,1.61.99,1.87,1.87Z"/><path class="cls-2" d="M258.88,406.51l-8.24,3.74-23.57-6.86c1.54-16.33-5.54-33.08.34-48.96,7.51-.28,14.98-.34,22.52-.82,3.19-.21,5.97-4.04,5.21,2.43-10.43-.54-17.01,4.05-26.13,1.87v42.05c3.62,4.87,10.06,1.82,15.43,3.24,6.36,1.68,3.89,6.7,14.44,3.31Z"/><path class="cls-2" d="M273.81,365.39c6.87,2.73,9.91,4.27,15.71,7.47,3.1,1.71,3.8.78,4.82,5.61-7.33-3.55-15.48-6.09-20.53-13.08Z"/><path class="cls-2" d="M257.01,356.05c5.81.74,13.86,3.12,14.93,9.34-4.65-2.03-11.53-5.54-14.93-9.34Z"/><path class="cls-2" d="M277.54,397.16v3.73c-2.44.25-5.03-.28-7.47,0,1.66-3.32,5.07-2.72,7.47-3.74Z"/><path class="cls-2" d="M296.21,387.82l3.73-7.48c.89.61,2.56.19,1.86,2.78-1.38,2.21-3.68,3.21-5.59,4.7Z"/><path class="cls-3" d="M288.74,391.56l5.6-3.74c-1.87,1.21-2.73,2.09-5.6,3.74Z"/><path class="cls-2" d="M268.21,400.9c-.36.61.25,2.62-.04,3.76-1.09.28-1.7-1.9-1.83-1.89l1.87-1.87Z"/><path class="cls-3" d="M285.01,393.43l1.87-1.87c-.34.18-.81,1.35-1.87,1.87Z"/><path class="cls-3" d="M298.08,380.34l-1.87-1.87c1.04.47,1.49,1.66,1.87,1.87Z"/><path class="cls-3" d="M279.41,397.16l3.73-3.74c-.24.11-1.14,2.53-3.73,3.74Z"/><path class="cls-2" d="M85.28,341.09c7.58-2.57,14.71-8.56,20.17-11.02,2.64-1.19,11.06-.94,11.68-3.21-1.98-8.6,4.39-38.76-5.14-41.47-5.93-1.68-21.8,1.61-24.48-7.27-1.31-4.33-.77-27.03,2.01-29.99,1.05-1.12,12.17-5.13,14.82-6.27,1.6-.69.88-3.28,4.18-3.7,10.14-1.28,19.2.81,28.43,4.52.76.31,1.05,2.98,2.85,3.69,3.22,1.26,9.76.82,10.58,1.51,4.79,3.97,3.57,32.73,3.99,39.93.7,11.88,6.57,59.28-3.78,65.41-3.68,2.18-12.52,3.32-18.95,7.2-3.25,1.97-5.37,6.46-6.67,6.83-7.04,1.99-18.46.24-21.03,11.23l-11.19,1.88c-.6-11.44-14.27-17.86-14.95-30.79l7.47-8.48Z"/></svg>