<svg id="visual" viewBox="0 0 960 540" width="960" height="540"
    xmlns="http://www.w3.org/2000/svg"
    xmlns:xlink="http://www.w3.org/1999/xlink" version="1.1">
    <g stroke-width="1" stroke-linejoin="bevel">
        <path d="M534.3 301L631 275L520.3 218Z" fill="#205a7a" stroke="#205a7a"></path>
        <path d="M631 275L634 180L520.3 218Z" fill="#1d4e6b" stroke="#1d4e6b"></path>
        <path d="M534.3 301L679 334L631 275Z" fill="#081a28" stroke="#081a28"></path>
        <path d="M631 275L729.7 182L634 180Z" fill="#1d4e6b" stroke="#1d4e6b"></path>
        <path d="M498.3 77L442.7 179L520.3 218Z" fill="#081a28" stroke="#081a28"></path>
        <path d="M520.3 218L396.7 279L534.3 301Z" fill="#205a7a" stroke="#205a7a"></path>
        <path d="M679 334L703.7 326L631 275Z" fill="#19435d" stroke="#19435d"></path>
        <path d="M703.7 326L720.7 307L631 275Z" fill="#205a7a" stroke="#205a7a"></path>
        <path d="M499.3 411L512.3 403L393.7 321Z" fill="#297ea6" stroke="#297ea6"></path>
        <path d="M534.3 301L512.3 403L679 334Z" fill="#15384f" stroke="#15384f"></path>
        <path d="M679 334L732.7 411L703.7 326Z" fill="#205a7a" stroke="#205a7a"></path>
        <path d="M720.7 307L729.7 182L631 275Z" fill="#00101c" stroke="#00101c"></path>
        <path d="M393.7 321L512.3 403L534.3 301Z" fill="#1d4e6b" stroke="#1d4e6b"></path>
        <path d="M512.3 403L638 458L679 334Z" fill="#15384f" stroke="#15384f"></path>
        <path d="M442.7 179L396.7 279L520.3 218Z" fill="#15384f" stroke="#15384f"></path>
        <path d="M608 61L498.3 77L634 180Z" fill="#19435d" stroke="#19435d"></path>
        <path d="M634 180L498.3 77L520.3 218Z" fill="#277297" stroke="#277297"></path>
        <path d="M396.7 279L393.7 321L534.3 301Z" fill="#0c2435" stroke="#0c2435"></path>
        <path d="M729.7 182L608 61L634 180Z" fill="#19435d" stroke="#19435d"></path>
        <path d="M550.3 540L638 458L512.3 403Z" fill="#1d4e6b" stroke="#1d4e6b"></path>
        <path d="M703.7 326L732.7 411L720.7 307Z" fill="#00101c" stroke="#00101c"></path>
        <path d="M638 458L732.7 411L679 334Z" fill="#297ea6" stroke="#297ea6"></path>
        <path d="M720.7 307L811.3 248L729.7 182Z" fill="#112e42" stroke="#112e42"></path>
        <path d="M498.3 77L408.7 95L442.7 179Z" fill="#205a7a" stroke="#205a7a"></path>
        <path d="M442.7 179L344 177L396.7 279Z" fill="#277297" stroke="#277297"></path>
        <path d="M278 305L317 367L393.7 321Z" fill="#19435d" stroke="#19435d"></path>
        <path d="M866.3 400L811.3 248L720.7 307Z" fill="#1d4e6b" stroke="#1d4e6b"></path>
        <path d="M729.7 182L676 0L608 61Z" fill="#15384f" stroke="#15384f"></path>
        <path d="M408.7 95L344 177L442.7 179Z" fill="#205a7a" stroke="#205a7a"></path>
        <path d="M836.3 161L789.7 129L729.7 182Z" fill="#00101c" stroke="#00101c"></path>
        <path d="M676 0L550.3 0L608 61Z" fill="#0c2435" stroke="#0c2435"></path>
        <path d="M608 61L550.3 0L498.3 77Z" fill="#15384f" stroke="#15384f"></path>
        <path d="M498.3 77L431.7 0L408.7 95Z" fill="#297ea6" stroke="#297ea6"></path>
        <path d="M393.7 321L397.7 444L499.3 411Z" fill="#246688" stroke="#246688"></path>
        <path d="M499.3 411L550.3 540L512.3 403Z" fill="#0c2435" stroke="#0c2435"></path>
        <path d="M317 367L397.7 444L393.7 321Z" fill="#205a7a" stroke="#205a7a"></path>
        <path d="M789.7 129L676 0L729.7 182Z" fill="#19435d" stroke="#19435d"></path>
        <path d="M811.3 248L836.3 161L729.7 182Z" fill="#246688" stroke="#246688"></path>
        <path d="M789.7 129L757.7 0L676 0Z" fill="#205a7a" stroke="#205a7a"></path>
        <path d="M278 305L393.7 321L396.7 279Z" fill="#00101c" stroke="#00101c"></path>
        <path d="M550.3 0L431.7 0L498.3 77Z" fill="#1d4e6b" stroke="#1d4e6b"></path>
        <path d="M408.7 95L318 72L344 177Z" fill="#1d4e6b" stroke="#1d4e6b"></path>
        <path d="M419.7 540L550.3 540L499.3 411Z" fill="#1d4e6b" stroke="#1d4e6b"></path>
        <path d="M638 458L773.7 540L732.7 411Z" fill="#0c2435" stroke="#0c2435"></path>
        <path d="M550.3 540L634 540L638 458Z" fill="#00101c" stroke="#00101c"></path>
        <path d="M344 177L278 305L396.7 279Z" fill="#15384f" stroke="#15384f"></path>
        <path d="M222.3 263L278 305L344 177Z" fill="#15384f" stroke="#15384f"></path>
        <path d="M431.7 0L318 72L408.7 95Z" fill="#15384f" stroke="#15384f"></path>
        <path d="M819.3 0L757.7 0L789.7 129Z" fill="#246688" stroke="#246688"></path>
        <path d="M238.3 352L317 435L317 367Z" fill="#112e42" stroke="#112e42"></path>
        <path d="M317 367L317 435L397.7 444Z" fill="#0c2435" stroke="#0c2435"></path>
        <path d="M397.7 444L419.7 540L499.3 411Z" fill="#112e42" stroke="#112e42"></path>
        <path d="M351 540L419.7 540L397.7 444Z" fill="#112e42" stroke="#112e42"></path>
        <path d="M886.3 473L866.3 400L732.7 411Z" fill="#112e42" stroke="#112e42"></path>
        <path d="M732.7 411L866.3 400L720.7 307Z" fill="#205a7a" stroke="#205a7a"></path>
        <path d="M960 163L885.3 124L836.3 161Z" fill="#205a7a" stroke="#205a7a"></path>
        <path d="M960 163L836.3 161L811.3 248Z" fill="#246688" stroke="#246688"></path>
        <path d="M836.3 161L885.3 124L789.7 129Z" fill="#1d4e6b" stroke="#1d4e6b"></path>
        <path d="M318 72L240.3 156L344 177Z" fill="#081a28" stroke="#081a28"></path>
        <path d="M278 305L238.3 352L317 367Z" fill="#297ea6" stroke="#297ea6"></path>
        <path d="M222.3 263L238.3 352L278 305Z" fill="#00101c" stroke="#00101c"></path>
        <path d="M240.3 156L222.3 263L344 177Z" fill="#277297" stroke="#277297"></path>
        <path d="M634 540L773.7 540L638 458Z" fill="#1d4e6b" stroke="#1d4e6b"></path>
        <path d="M885.3 124L819.3 0L789.7 129Z" fill="#112e42" stroke="#112e42"></path>
        <path d="M317 435L351 540L397.7 444Z" fill="#277297" stroke="#277297"></path>
        <path d="M188.3 540L351 540L317 435Z" fill="#297ea6" stroke="#297ea6"></path>
        <path d="M431.7 0L302 0L318 72Z" fill="#081a28" stroke="#081a28"></path>
        <path d="M318 72L235.3 80L240.3 156Z" fill="#081a28" stroke="#081a28"></path>
        <path d="M302 0L235.3 80L318 72Z" fill="#112e42" stroke="#112e42"></path>
        <path d="M74.7 216L118.7 306L222.3 263Z" fill="#19435d" stroke="#19435d"></path>
        <path d="M773.7 540L886.3 473L732.7 411Z" fill="#246688" stroke="#246688"></path>
        <path d="M866.3 400L960 302L811.3 248Z" fill="#205a7a" stroke="#205a7a"></path>
        <path d="M960 376L960 302L866.3 400Z" fill="#1d4e6b" stroke="#1d4e6b"></path>
        <path d="M960 302L960 163L811.3 248Z" fill="#277297" stroke="#277297"></path>
        <path d="M885.3 124L960 82L819.3 0Z" fill="#0c2435" stroke="#0c2435"></path>
        <path d="M773.7 540L846.3 540L886.3 473Z" fill="#081a28" stroke="#081a28"></path>
        <path d="M960 414L866.3 400L886.3 473Z" fill="#112e42" stroke="#112e42"></path>
        <path d="M960 414L960 376L866.3 400Z" fill="#0c2435" stroke="#0c2435"></path>
        <path d="M960 540L960 414L886.3 473Z" fill="#277297" stroke="#277297"></path>
        <path d="M960 163L960 82L885.3 124Z" fill="#1d4e6b" stroke="#1d4e6b"></path>
        <path d="M111.7 403L180.3 429L238.3 352Z" fill="#15384f" stroke="#15384f"></path>
        <path d="M238.3 352L180.3 429L317 435Z" fill="#297ea6" stroke="#297ea6"></path>
        <path d="M118.7 306L238.3 352L222.3 263Z" fill="#15384f" stroke="#15384f"></path>
        <path d="M302 0L207.3 0L235.3 80Z" fill="#246688" stroke="#246688"></path>
        <path d="M74.7 216L222.3 263L240.3 156Z" fill="#205a7a" stroke="#205a7a"></path>
        <path d="M104.7 113L240.3 156L235.3 80Z" fill="#19435d" stroke="#19435d"></path>
        <path d="M960 82L960 0L819.3 0Z" fill="#15384f" stroke="#15384f"></path>
        <path d="M109.7 540L188.3 540L180.3 429Z" fill="#112e42" stroke="#112e42"></path>
        <path d="M180.3 429L188.3 540L317 435Z" fill="#0c2435" stroke="#0c2435"></path>
        <path d="M846.3 540L960 540L886.3 473Z" fill="#1d4e6b" stroke="#1d4e6b"></path>
        <path d="M118.7 306L111.7 403L238.3 352Z" fill="#00101c" stroke="#00101c"></path>
        <path d="M207.3 0L104.7 113L235.3 80Z" fill="#297ea6" stroke="#297ea6"></path>
        <path d="M0 349L84.7 421L111.7 403Z" fill="#1d4e6b" stroke="#1d4e6b"></path>
        <path d="M104.7 113L74.7 216L240.3 156Z" fill="#1d4e6b" stroke="#1d4e6b"></path>
        <path d="M0 349L111.7 403L118.7 306Z" fill="#297ea6" stroke="#297ea6"></path>
        <path d="M111.7 403L84.7 421L180.3 429Z" fill="#1d4e6b" stroke="#1d4e6b"></path>
        <path d="M84.7 421L109.7 540L180.3 429Z" fill="#0c2435" stroke="#0c2435"></path>
        <path d="M0 137L0 267L74.7 216Z" fill="#0c2435" stroke="#0c2435"></path>
        <path d="M207.3 0L71.7 0L104.7 113Z" fill="#081a28" stroke="#081a28"></path>
        <path d="M74.7 216L0 267L118.7 306Z" fill="#081a28" stroke="#081a28"></path>
        <path d="M84.7 421L0 489L109.7 540Z" fill="#1d4e6b" stroke="#1d4e6b"></path>
        <path d="M0 137L74.7 216L104.7 113Z" fill="#1d4e6b" stroke="#1d4e6b"></path>
        <path d="M0 267L0 349L118.7 306Z" fill="#1d4e6b" stroke="#1d4e6b"></path>
        <path d="M0 93L0 137L104.7 113Z" fill="#00101c" stroke="#00101c"></path>
        <path d="M71.7 0L0 93L104.7 113Z" fill="#1d4e6b" stroke="#1d4e6b"></path>
        <path d="M0 349L0 489L84.7 421Z" fill="#1d4e6b" stroke="#1d4e6b"></path>
        <path d="M71.7 0L0 0L0 93Z" fill="#297ea6" stroke="#297ea6"></path>
        <path d="M0 489L0 540L109.7 540Z" fill="#15384f" stroke="#15384f"></path>
    </g>
</svg>